<svg width="272" height="70" viewBox="0 0 272 70" fill="none" xmlns="http://www.w3.org/2000/svg">
<path fill-rule="evenodd" clip-rule="evenodd" d="M163.966 4H168.917V9.95635H174.882V14.9002H168.917V20.8562H163.966V14.9002H158V9.95635H163.966V4Z" fill="#1A76DC" fill-opacity="0.7"/>
<path d="M6.58 25.5C6.84133 25.5747 7.17733 25.6307 7.588 25.668C7.99867 25.6867 8.39067 25.696 8.764 25.696C9.51067 25.696 10.1267 25.5467 10.612 25.248C11.116 24.9307 11.368 24.4453 11.368 23.792C11.368 23.176 11.1627 22.7373 10.752 22.476C10.3413 22.2147 9.716 22.084 8.876 22.084H6.58V25.5ZM6.58 18.668H8.624C9.42667 18.668 10.0053 18.5187 10.36 18.22C10.7333 17.9213 10.92 17.4827 10.92 16.904C10.92 16.4 10.7053 15.9987 10.276 15.7C9.86533 15.4013 9.24 15.252 8.4 15.252C8.12 15.252 7.79333 15.2613 7.42 15.28C7.06533 15.2987 6.78533 15.3267 6.58 15.364V18.668ZM8.4 29.448C8.08267 29.448 7.70933 29.4387 7.28 29.42C6.85067 29.4013 6.40267 29.364 5.936 29.308C5.488 29.252 5.04 29.1773 4.592 29.084C4.144 29.0093 3.73333 28.8973 3.36 28.748C2.33333 28.356 1.82 27.6747 1.82 26.704V13.628C1.82 13.236 1.92267 12.9373 2.128 12.732C2.352 12.508 2.65067 12.3307 3.024 12.2C3.65867 11.976 4.452 11.8173 5.404 11.724C6.356 11.612 7.336 11.556 8.344 11.556C10.7333 11.556 12.572 11.9573 13.86 12.76C15.148 13.5627 15.792 14.804 15.792 16.484C15.792 17.324 15.5493 18.052 15.064 18.668C14.5787 19.2653 13.9253 19.704 13.104 19.984C14.0373 20.2453 14.812 20.7213 15.428 21.412C16.0627 22.1027 16.38 22.9707 16.38 24.016C16.38 25.864 15.6893 27.236 14.308 28.132C12.9453 29.0093 10.976 29.448 8.4 29.448ZM27.3619 18.724C26.8952 18.724 26.4472 18.7987 26.0179 18.948C25.6072 19.0973 25.2432 19.3213 24.9259 19.62C24.6272 19.9 24.3846 20.2547 24.1979 20.684C24.0112 21.1133 23.9179 21.6173 23.9179 22.196C23.9179 23.3533 24.2446 24.2213 24.8979 24.8C25.5699 25.3787 26.3819 25.668 27.3339 25.668C27.8939 25.668 28.3792 25.6027 28.7899 25.472C29.2006 25.3413 29.5646 25.2013 29.8819 25.052C30.2552 25.3133 30.5352 25.6027 30.7219 25.92C30.9086 26.2187 31.0019 26.5827 31.0019 27.012C31.0019 27.7773 30.6379 28.3747 29.9099 28.804C29.1819 29.2147 28.1739 29.42 26.8859 29.42C25.7099 29.42 24.6459 29.252 23.6939 28.916C22.7419 28.5613 21.9206 28.076 21.2299 27.46C20.5579 26.8253 20.0352 26.0693 19.6619 25.192C19.2886 24.3147 19.1019 23.344 19.1019 22.28C19.1019 21.048 19.2979 19.9747 19.6899 19.06C20.1006 18.1267 20.6512 17.3613 21.3419 16.764C22.0326 16.1667 22.8259 15.7187 23.7219 15.42C24.6366 15.1213 25.5979 14.972 26.6059 14.972C27.9499 14.972 28.9859 15.2147 29.7139 15.7C30.4419 16.1853 30.8059 16.8107 30.8059 17.576C30.8059 17.9307 30.7219 18.2667 30.5539 18.584C30.3859 18.8827 30.1899 19.144 29.9659 19.368C29.6486 19.2187 29.2659 19.0787 28.8179 18.948C28.3699 18.7987 27.8846 18.724 27.3619 18.724ZM48.043 22.196C48.043 23.3533 47.8656 24.3893 47.511 25.304C47.1563 26.2 46.6523 26.956 45.999 27.572C45.3643 28.188 44.599 28.6547 43.703 28.972C42.807 29.2893 41.8083 29.448 40.707 29.448C39.6056 29.448 38.607 29.28 37.711 28.944C36.815 28.608 36.0403 28.132 35.387 27.516C34.7523 26.8813 34.2576 26.116 33.903 25.22C33.5483 24.324 33.371 23.316 33.371 22.196C33.371 21.0947 33.5483 20.096 33.903 19.2C34.2576 18.304 34.7523 17.548 35.387 16.932C36.0403 16.2973 36.815 15.812 37.711 15.476C38.607 15.14 39.6056 14.972 40.707 14.972C41.8083 14.972 42.807 15.1493 43.703 15.504C44.599 15.84 45.3643 16.3253 45.999 16.96C46.6523 17.576 47.1563 18.332 47.511 19.228C47.8656 20.124 48.043 21.1133 48.043 22.196ZM38.243 22.196C38.243 23.3347 38.4576 24.212 38.887 24.828C39.335 25.4253 39.951 25.724 40.735 25.724C41.519 25.724 42.1163 25.416 42.527 24.8C42.9563 24.184 43.171 23.316 43.171 22.196C43.171 21.076 42.9563 20.2173 42.527 19.62C42.0976 19.004 41.491 18.696 40.707 18.696C39.923 18.696 39.3163 19.004 38.887 19.62C38.4576 20.2173 38.243 21.076 38.243 22.196ZM57.8692 14.972C58.6346 14.972 59.3812 15.084 60.1092 15.308C60.8559 15.5133 61.4999 15.8307 62.0412 16.26C62.6012 15.8867 63.2266 15.5787 63.9172 15.336C64.6266 15.0933 65.4759 14.972 66.4652 14.972C67.1746 14.972 67.8652 15.0653 68.5372 15.252C69.2279 15.4387 69.8346 15.7373 70.3572 16.148C70.8986 16.54 71.3279 17.072 71.6452 17.744C71.9626 18.3973 72.1212 19.2 72.1212 20.152V28.972C71.9346 29.028 71.6359 29.084 71.2252 29.14C70.8332 29.196 70.4226 29.224 69.9932 29.224C69.5826 29.224 69.2092 29.196 68.8732 29.14C68.5559 29.084 68.2852 28.972 68.0612 28.804C67.8372 28.636 67.6599 28.412 67.5292 28.132C67.4172 27.8333 67.3612 27.4507 67.3612 26.984V20.292C67.3612 19.732 67.2026 19.3307 66.8852 19.088C66.5679 18.8267 66.1386 18.696 65.5972 18.696C65.3359 18.696 65.0559 18.7613 64.7572 18.892C64.4586 19.004 64.2346 19.1253 64.0852 19.256C64.1039 19.3307 64.1132 19.4053 64.1132 19.48C64.1132 19.536 64.1132 19.592 64.1132 19.648V28.972C63.9079 29.028 63.5999 29.084 63.1892 29.14C62.7972 29.196 62.3959 29.224 61.9852 29.224C61.5746 29.224 61.2012 29.196 60.8652 29.14C60.5479 29.084 60.2772 28.972 60.0532 28.804C59.8292 28.636 59.6519 28.412 59.5212 28.132C59.4092 27.8333 59.3532 27.4507 59.3532 26.984V20.292C59.3532 19.732 59.1759 19.3307 58.8212 19.088C58.4852 18.8267 58.0746 18.696 57.5892 18.696C57.2532 18.696 56.9639 18.752 56.7212 18.864C56.4786 18.9573 56.2732 19.0507 56.1052 19.144V28.972C55.9186 29.028 55.6199 29.084 55.2092 29.14C54.8172 29.196 54.4066 29.224 53.9772 29.224C53.5666 29.224 53.1932 29.196 52.8572 29.14C52.5399 29.084 52.2692 28.972 52.0452 28.804C51.8212 28.636 51.6439 28.412 51.5132 28.132C51.4012 27.8333 51.3452 27.4507 51.3452 26.984V18.528C51.3452 18.024 51.4479 17.6227 51.6532 17.324C51.8772 17.0253 52.1759 16.7453 52.5492 16.484C53.1839 16.036 53.9679 15.672 54.9012 15.392C55.8532 15.112 56.8426 14.972 57.8692 14.972ZM82.5289 14.972C83.2942 14.972 84.0409 15.084 84.7689 15.308C85.5156 15.5133 86.1596 15.8307 86.7009 16.26C87.2609 15.8867 87.8862 15.5787 88.5769 15.336C89.2862 15.0933 90.1356 14.972 91.1249 14.972C91.8342 14.972 92.5249 15.0653 93.1969 15.252C93.8876 15.4387 94.4942 15.7373 95.0169 16.148C95.5582 16.54 95.9876 17.072 96.3049 17.744C96.6222 18.3973 96.7809 19.2 96.7809 20.152V28.972C96.5942 29.028 96.2956 29.084 95.8849 29.14C95.4929 29.196 95.0822 29.224 94.6529 29.224C94.2422 29.224 93.8689 29.196 93.5329 29.14C93.2156 29.084 92.9449 28.972 92.7209 28.804C92.4969 28.636 92.3196 28.412 92.1889 28.132C92.0769 27.8333 92.0209 27.4507 92.0209 26.984V20.292C92.0209 19.732 91.8622 19.3307 91.5449 19.088C91.2276 18.8267 90.7982 18.696 90.2569 18.696C89.9956 18.696 89.7156 18.7613 89.4169 18.892C89.1182 19.004 88.8942 19.1253 88.7449 19.256C88.7636 19.3307 88.7729 19.4053 88.7729 19.48C88.7729 19.536 88.7729 19.592 88.7729 19.648V28.972C88.5676 29.028 88.2596 29.084 87.8489 29.14C87.4569 29.196 87.0556 29.224 86.6449 29.224C86.2342 29.224 85.8609 29.196 85.5249 29.14C85.2076 29.084 84.9369 28.972 84.7129 28.804C84.4889 28.636 84.3116 28.412 84.1809 28.132C84.0689 27.8333 84.0129 27.4507 84.0129 26.984V20.292C84.0129 19.732 83.8356 19.3307 83.4809 19.088C83.1449 18.8267 82.7342 18.696 82.2489 18.696C81.9129 18.696 81.6236 18.752 81.3809 18.864C81.1382 18.9573 80.9329 19.0507 80.7649 19.144V28.972C80.5782 29.028 80.2796 29.084 79.8689 29.14C79.4769 29.196 79.0662 29.224 78.6369 29.224C78.2262 29.224 77.8529 29.196 77.5169 29.14C77.1996 29.084 76.9289 28.972 76.7049 28.804C76.4809 28.636 76.3036 28.412 76.1729 28.132C76.0609 27.8333 76.0049 27.4507 76.0049 26.984V18.528C76.0049 18.024 76.1076 17.6227 76.3129 17.324C76.5369 17.0253 76.8356 16.7453 77.2089 16.484C77.8436 16.036 78.6276 15.672 79.5609 15.392C80.5129 15.112 81.5022 14.972 82.5289 14.972ZM107.861 29.448C106.759 29.448 105.733 29.2987 104.781 29C103.847 28.6827 103.026 28.216 102.317 27.6C101.626 26.984 101.075 26.2093 100.665 25.276C100.273 24.3427 100.077 23.2507 100.077 22C100.077 20.768 100.273 19.7133 100.665 18.836C101.075 17.94 101.607 17.212 102.261 16.652C102.914 16.0733 103.661 15.6533 104.501 15.392C105.341 15.112 106.199 14.972 107.077 14.972C108.066 14.972 108.962 15.1213 109.765 15.42C110.586 15.7187 111.286 16.1293 111.865 16.652C112.462 17.1747 112.919 17.8 113.237 18.528C113.573 19.256 113.741 20.0493 113.741 20.908C113.741 21.5427 113.563 22.028 113.209 22.364C112.854 22.7 112.359 22.9147 111.725 23.008L104.809 24.044C105.014 24.66 105.434 25.1267 106.069 25.444C106.703 25.7427 107.431 25.892 108.253 25.892C109.018 25.892 109.737 25.7987 110.409 25.612C111.099 25.4067 111.659 25.1733 112.089 24.912C112.387 25.0987 112.639 25.36 112.845 25.696C113.05 26.032 113.153 26.3867 113.153 26.76C113.153 27.6 112.761 28.2253 111.977 28.636C111.379 28.9533 110.707 29.168 109.961 29.28C109.214 29.392 108.514 29.448 107.861 29.448ZM107.077 18.444C106.629 18.444 106.237 18.5187 105.901 18.668C105.583 18.8173 105.322 19.0133 105.117 19.256C104.911 19.48 104.753 19.7413 104.641 20.04C104.547 20.32 104.491 20.6093 104.473 20.908L109.261 20.124C109.205 19.7507 108.999 19.3773 108.645 19.004C108.29 18.6307 107.767 18.444 107.077 18.444ZM121.772 28.972C121.585 29.028 121.286 29.084 120.876 29.14C120.484 29.196 120.073 29.224 119.644 29.224C119.233 29.224 118.86 29.196 118.524 29.14C118.206 29.084 117.936 28.972 117.712 28.804C117.488 28.636 117.31 28.412 117.18 28.132C117.068 27.8333 117.012 27.4507 117.012 26.984V18.584C117.012 18.1547 117.086 17.7907 117.236 17.492C117.404 17.1747 117.637 16.8947 117.936 16.652C118.234 16.4093 118.598 16.1947 119.028 16.008C119.476 15.8027 119.952 15.6253 120.456 15.476C120.96 15.3267 121.482 15.2147 122.024 15.14C122.565 15.0467 123.106 15 123.648 15C124.544 15 125.253 15.1773 125.776 15.532C126.298 15.868 126.56 16.428 126.56 17.212C126.56 17.4733 126.522 17.7347 126.448 17.996C126.373 18.2387 126.28 18.4627 126.168 18.668C125.776 18.668 125.374 18.6867 124.964 18.724C124.553 18.7613 124.152 18.8173 123.76 18.892C123.368 18.9667 122.994 19.0507 122.64 19.144C122.304 19.2187 122.014 19.312 121.772 19.424V28.972ZM136.656 18.724C136.189 18.724 135.741 18.7987 135.312 18.948C134.901 19.0973 134.537 19.3213 134.22 19.62C133.921 19.9 133.679 20.2547 133.492 20.684C133.305 21.1133 133.212 21.6173 133.212 22.196C133.212 23.3533 133.539 24.2213 134.192 24.8C134.864 25.3787 135.676 25.668 136.628 25.668C137.188 25.668 137.673 25.6027 138.084 25.472C138.495 25.3413 138.859 25.2013 139.176 25.052C139.549 25.3133 139.829 25.6027 140.016 25.92C140.203 26.2187 140.296 26.5827 140.296 27.012C140.296 27.7773 139.932 28.3747 139.204 28.804C138.476 29.2147 137.468 29.42 136.18 29.42C135.004 29.42 133.94 29.252 132.988 28.916C132.036 28.5613 131.215 28.076 130.524 27.46C129.852 26.8253 129.329 26.0693 128.956 25.192C128.583 24.3147 128.396 23.344 128.396 22.28C128.396 21.048 128.592 19.9747 128.984 19.06C129.395 18.1267 129.945 17.3613 130.636 16.764C131.327 16.1667 132.12 15.7187 133.016 15.42C133.931 15.1213 134.892 14.972 135.9 14.972C137.244 14.972 138.28 15.2147 139.008 15.7C139.736 16.1853 140.1 16.8107 140.1 17.576C140.1 17.9307 140.016 18.2667 139.848 18.584C139.68 18.8827 139.484 19.144 139.26 19.368C138.943 19.2187 138.56 19.0787 138.112 18.948C137.664 18.7987 137.179 18.724 136.656 18.724ZM150.449 29.448C149.348 29.448 148.321 29.2987 147.369 29C146.436 28.6827 145.614 28.216 144.905 27.6C144.214 26.984 143.664 26.2093 143.253 25.276C142.861 24.3427 142.665 23.2507 142.665 22C142.665 20.768 142.861 19.7133 143.253 18.836C143.664 17.94 144.196 17.212 144.849 16.652C145.502 16.0733 146.249 15.6533 147.089 15.392C147.929 15.112 148.788 14.972 149.665 14.972C150.654 14.972 151.55 15.1213 152.353 15.42C153.174 15.7187 153.874 16.1293 154.453 16.652C155.05 17.1747 155.508 17.8 155.825 18.528C156.161 19.256 156.329 20.0493 156.329 20.908C156.329 21.5427 156.152 22.028 155.797 22.364C155.442 22.7 154.948 22.9147 154.313 23.008L147.397 24.044C147.602 24.66 148.022 25.1267 148.657 25.444C149.292 25.7427 150.02 25.892 150.841 25.892C151.606 25.892 152.325 25.7987 152.997 25.612C153.688 25.4067 154.248 25.1733 154.677 24.912C154.976 25.0987 155.228 25.36 155.433 25.696C155.638 26.032 155.741 26.3867 155.741 26.76C155.741 27.6 155.349 28.2253 154.565 28.636C153.968 28.9533 153.296 29.168 152.549 29.28C151.802 29.392 151.102 29.448 150.449 29.448ZM149.665 18.444C149.217 18.444 148.825 18.5187 148.489 18.668C148.172 18.8173 147.91 19.0133 147.705 19.256C147.5 19.48 147.341 19.7413 147.229 20.04C147.136 20.32 147.08 20.6093 147.061 20.908L151.849 20.124C151.793 19.7507 151.588 19.3773 151.233 19.004C150.878 18.6307 150.356 18.444 149.665 18.444Z" fill="#1A76DC"/>
<path d="M14.552 50.828C14.3093 51.0333 13.992 51.2013 13.6 51.332C13.2267 51.444 12.788 51.5 12.284 51.5C11.612 51.5 11.052 51.416 10.604 51.248C10.1747 51.08 9.89467 50.7907 9.764 50.38C9.24133 48.7373 8.812 47.412 8.476 46.404C8.14 45.3773 7.87867 44.4813 7.692 43.716H7.552C7.496 44.8173 7.44933 45.8253 7.412 46.74C7.39333 47.636 7.37467 48.5133 7.356 49.372C7.356 50.2307 7.33733 51.0987 7.3 51.976C7.28133 52.8533 7.244 53.824 7.188 54.888C6.94533 54.9813 6.628 55.056 6.236 55.112C5.844 55.1867 5.452 55.224 5.06 55.224C4.23867 55.224 3.59467 55.0933 3.128 54.832C2.68 54.5707 2.456 54.0947 2.456 53.404L3.268 39.124C3.41733 38.8813 3.744 38.62 4.248 38.34C4.752 38.06 5.46133 37.92 6.376 37.92C7.36533 37.92 8.14 38.0787 8.7 38.396C9.26 38.6947 9.67067 39.1893 9.932 39.88C10.1 40.328 10.2773 40.8413 10.464 41.42C10.6693 41.9987 10.8653 42.596 11.052 43.212C11.2573 43.828 11.4533 44.444 11.64 45.06C11.8267 45.6573 11.9947 46.1987 12.144 46.684H12.284C12.732 45.116 13.18 43.604 13.628 42.148C14.076 40.6733 14.4867 39.4413 14.86 38.452C15.14 38.3027 15.4947 38.1813 15.924 38.088C16.372 37.976 16.8667 37.92 17.408 37.92C18.3227 37.92 19.0693 38.06 19.648 38.34C20.2267 38.6013 20.5627 38.984 20.656 39.488C20.7307 39.8613 20.8053 40.44 20.88 41.224C20.9733 41.9893 21.0667 42.8573 21.16 43.828C21.2533 44.7987 21.3467 45.8253 21.44 46.908C21.5333 47.9907 21.6173 49.036 21.692 50.044C21.7853 51.0333 21.86 51.948 21.916 52.788C21.972 53.6093 22.0093 54.244 22.028 54.692C21.7107 54.8787 21.3747 55.0093 21.02 55.084C20.684 55.1773 20.2453 55.224 19.704 55.224C18.9947 55.224 18.3973 55.1027 17.912 54.86C17.4267 54.6173 17.1653 54.1413 17.128 53.432C17.016 51.3973 16.9413 49.568 16.904 47.944C16.8853 46.32 16.848 44.9573 16.792 43.856H16.652C16.4653 44.584 16.1947 45.4987 15.84 46.6C15.4853 47.7013 15.056 49.1107 14.552 50.828ZM31.5725 51.976C31.8898 51.976 32.2352 51.948 32.6085 51.892C33.0005 51.8173 33.2898 51.724 33.4765 51.612V49.372L31.4605 49.54C30.9378 49.5773 30.5085 49.6893 30.1725 49.876C29.8365 50.0627 29.6685 50.3427 29.6685 50.716C29.6685 51.0893 29.8085 51.3973 30.0885 51.64C30.3872 51.864 30.8818 51.976 31.5725 51.976ZM31.3485 40.972C32.3565 40.972 33.2712 41.0747 34.0925 41.28C34.9325 41.4853 35.6418 41.8027 36.2205 42.232C36.8178 42.6427 37.2752 43.1747 37.5925 43.828C37.9098 44.4627 38.0685 45.2187 38.0685 46.096V52.368C38.0685 52.8533 37.9285 53.2547 37.6485 53.572C37.3872 53.8707 37.0698 54.132 36.6965 54.356C35.4832 55.084 33.7752 55.448 31.5725 55.448C30.5832 55.448 29.6872 55.3547 28.8845 55.168C28.1005 54.9813 27.4192 54.7013 26.8405 54.328C26.2805 53.9547 25.8418 53.4787 25.5245 52.9C25.2258 52.3213 25.0765 51.6493 25.0765 50.884C25.0765 49.596 25.4592 48.6067 26.2245 47.916C26.9898 47.2253 28.1752 46.796 29.7805 46.628L33.4485 46.236V46.04C33.4485 45.4987 33.2058 45.116 32.7205 44.892C32.2538 44.6493 31.5725 44.528 30.6765 44.528C29.9672 44.528 29.2765 44.6027 28.6045 44.752C27.9325 44.9013 27.3258 45.088 26.7845 45.312C26.5418 45.144 26.3365 44.892 26.1685 44.556C26.0005 44.2013 25.9165 43.8373 25.9165 43.464C25.9165 42.9787 26.0285 42.596 26.2525 42.316C26.4952 42.0173 26.8592 41.7653 27.3445 41.56C27.8858 41.3547 28.5205 41.2053 29.2485 41.112C29.9952 41.0187 30.6952 40.972 31.3485 40.972ZM53.439 50.94C53.439 52.3587 52.907 53.4693 51.843 54.272C50.779 55.0747 49.211 55.476 47.139 55.476C46.355 55.476 45.627 55.42 44.955 55.308C44.283 55.196 43.7043 55.028 43.219 54.804C42.7523 54.5613 42.379 54.2627 42.099 53.908C41.8376 53.5533 41.707 53.1333 41.707 52.648C41.707 52.2 41.8003 51.8267 41.987 51.528C42.1736 51.2107 42.3976 50.9493 42.659 50.744C43.2003 51.0427 43.8163 51.3133 44.507 51.556C45.2163 51.78 46.0283 51.892 46.943 51.892C47.5216 51.892 47.9603 51.808 48.259 51.64C48.5763 51.472 48.735 51.248 48.735 50.968C48.735 50.7067 48.623 50.5013 48.399 50.352C48.175 50.2027 47.8016 50.0813 47.279 49.988L46.439 49.82C44.815 49.5027 43.6016 49.008 42.799 48.336C42.015 47.6453 41.623 46.6653 41.623 45.396C41.623 44.7053 41.7723 44.08 42.071 43.52C42.3696 42.96 42.7896 42.4933 43.331 42.12C43.8723 41.7467 44.5163 41.4573 45.263 41.252C46.0283 41.0467 46.8683 40.944 47.783 40.944C48.4736 40.944 49.1176 41 49.715 41.112C50.331 41.2053 50.863 41.3547 51.311 41.56C51.759 41.7653 52.1136 42.036 52.375 42.372C52.6363 42.6893 52.767 43.072 52.767 43.52C52.767 43.9493 52.683 44.3227 52.515 44.64C52.3656 44.9387 52.1696 45.1907 51.927 45.396C51.7776 45.3027 51.5536 45.2093 51.255 45.116C50.9563 45.004 50.6296 44.9107 50.275 44.836C49.9203 44.7427 49.5563 44.668 49.183 44.612C48.8283 44.556 48.5016 44.528 48.203 44.528C47.587 44.528 47.111 44.6027 46.775 44.752C46.439 44.8827 46.271 45.0973 46.271 45.396C46.271 45.6013 46.3643 45.7693 46.551 45.9C46.7376 46.0307 47.0923 46.152 47.615 46.264L48.483 46.46C50.275 46.8707 51.5443 47.44 52.291 48.168C53.0563 48.8773 53.439 49.8013 53.439 50.94ZM64.5289 44.724C64.0623 44.724 63.6143 44.7987 63.1849 44.948C62.7743 45.0973 62.4103 45.3213 62.0929 45.62C61.7943 45.9 61.5516 46.2547 61.3649 46.684C61.1783 47.1133 61.0849 47.6173 61.0849 48.196C61.0849 49.3533 61.4116 50.2213 62.0649 50.8C62.7369 51.3787 63.5489 51.668 64.5009 51.668C65.0609 51.668 65.5463 51.6027 65.9569 51.472C66.3676 51.3413 66.7316 51.2013 67.0489 51.052C67.4223 51.3133 67.7023 51.6027 67.8889 51.92C68.0756 52.2187 68.1689 52.5827 68.1689 53.012C68.1689 53.7773 67.8049 54.3747 67.0769 54.804C66.3489 55.2147 65.3409 55.42 64.0529 55.42C62.8769 55.42 61.8129 55.252 60.8609 54.916C59.9089 54.5613 59.0876 54.076 58.3969 53.46C57.7249 52.8253 57.2023 52.0693 56.8289 51.192C56.4556 50.3147 56.2689 49.344 56.2689 48.28C56.2689 47.048 56.4649 45.9747 56.8569 45.06C57.2676 44.1267 57.8183 43.3613 58.5089 42.764C59.1996 42.1667 59.9929 41.7187 60.8889 41.42C61.8036 41.1213 62.7649 40.972 63.7729 40.972C65.1169 40.972 66.1529 41.2147 66.8809 41.7C67.6089 42.1853 67.9729 42.8107 67.9729 43.576C67.9729 43.9307 67.8889 44.2667 67.7209 44.584C67.5529 44.8827 67.3569 45.144 67.1329 45.368C66.8156 45.2187 66.4329 45.0787 65.9849 44.948C65.5369 44.7987 65.0516 44.724 64.5289 44.724ZM77.566 55.448C76.5767 55.448 75.6527 55.2987 74.794 55C73.9353 54.72 73.1887 54.2813 72.554 53.684C71.9193 53.0867 71.4247 52.34 71.07 51.444C70.7153 50.548 70.538 49.4933 70.538 48.28C70.538 47.104 70.7247 46.068 71.098 45.172C71.4713 44.2573 71.994 43.492 72.666 42.876C73.3567 42.2413 74.178 41.7653 75.13 41.448C76.1007 41.1307 77.174 40.972 78.35 40.972C79.3953 40.972 80.3753 41.112 81.29 41.392C82.2047 41.672 82.9047 41.98 83.39 42.316C83.7633 42.5773 84.0527 42.876 84.258 43.212C84.482 43.548 84.594 43.968 84.594 44.472V59.704C84.4073 59.76 84.1087 59.816 83.698 59.872C83.2873 59.9467 82.8673 59.984 82.438 59.984C82.0273 59.984 81.654 59.956 81.318 59.9C81.0007 59.844 80.73 59.732 80.506 59.564C80.282 59.396 80.114 59.1627 80.002 58.864C79.89 58.584 79.834 58.2107 79.834 57.744V55.084C79.5167 55.2147 79.162 55.308 78.77 55.364C78.378 55.42 77.9767 55.448 77.566 55.448ZM79.862 44.976C79.694 44.9013 79.498 44.836 79.274 44.78C79.05 44.724 78.7887 44.696 78.49 44.696C77.482 44.696 76.7073 44.9947 76.166 45.592C75.6247 46.1707 75.354 47.048 75.354 48.224C75.354 49.456 75.6153 50.3427 76.138 50.884C76.6607 51.4253 77.398 51.696 78.35 51.696C78.9847 51.696 79.4887 51.5653 79.862 51.304V44.976ZM88.5396 41.588C88.7263 41.532 89.0156 41.476 89.4076 41.42C89.8183 41.364 90.2383 41.336 90.6676 41.336C91.0783 41.336 91.4423 41.364 91.7596 41.42C92.0956 41.476 92.3756 41.588 92.5996 41.756C92.8236 41.924 92.9916 42.1573 93.1036 42.456C93.2343 42.736 93.2996 43.1093 93.2996 43.576V49.596C93.2996 50.3613 93.4863 50.912 93.8596 51.248C94.2329 51.5653 94.7743 51.724 95.4836 51.724C95.9129 51.724 96.2583 51.6867 96.5196 51.612C96.7996 51.5373 97.0143 51.4627 97.1636 51.388V41.588C97.3503 41.532 97.6396 41.476 98.0316 41.42C98.4423 41.364 98.8623 41.336 99.2916 41.336C99.7023 41.336 100.066 41.364 100.384 41.42C100.72 41.476 101 41.588 101.224 41.756C101.448 41.924 101.616 42.1573 101.728 42.456C101.858 42.736 101.924 43.1093 101.924 43.576V52.088C101.924 53.0213 101.532 53.7213 100.748 54.188C100.094 54.5987 99.3103 54.9067 98.3956 55.112C97.4996 55.336 96.5196 55.448 95.4556 55.448C94.4476 55.448 93.5143 55.336 92.6556 55.112C91.8156 54.888 91.0876 54.5427 90.4716 54.076C89.8556 53.6093 89.3796 53.012 89.0436 52.284C88.7076 51.5373 88.5396 50.6413 88.5396 49.596V41.588ZM113.012 55.448C111.911 55.448 110.884 55.2987 109.932 55C108.999 54.6827 108.178 54.216 107.468 53.6C106.778 52.984 106.227 52.2093 105.816 51.276C105.424 50.3427 105.228 49.2507 105.228 48C105.228 46.768 105.424 45.7133 105.816 44.836C106.227 43.94 106.759 43.212 107.412 42.652C108.066 42.0733 108.812 41.6533 109.652 41.392C110.492 41.112 111.351 40.972 112.228 40.972C113.218 40.972 114.114 41.1213 114.916 41.42C115.738 41.7187 116.438 42.1293 117.016 42.652C117.614 43.1747 118.071 43.8 118.388 44.528C118.724 45.256 118.892 46.0493 118.892 46.908C118.892 47.5427 118.715 48.028 118.36 48.364C118.006 48.7 117.511 48.9147 116.876 49.008L109.96 50.044C110.166 50.66 110.586 51.1267 111.22 51.444C111.855 51.7427 112.583 51.892 113.404 51.892C114.17 51.892 114.888 51.7987 115.56 51.612C116.251 51.4067 116.811 51.1733 117.24 50.912C117.539 51.0987 117.791 51.36 117.996 51.696C118.202 52.032 118.304 52.3867 118.304 52.76C118.304 53.6 117.912 54.2253 117.128 54.636C116.531 54.9533 115.859 55.168 115.112 55.28C114.366 55.392 113.666 55.448 113.012 55.448ZM112.228 44.444C111.78 44.444 111.388 44.5187 111.052 44.668C110.735 44.8173 110.474 45.0133 110.268 45.256C110.063 45.48 109.904 45.7413 109.792 46.04C109.699 46.32 109.643 46.6093 109.624 46.908L114.412 46.124C114.356 45.7507 114.151 45.3773 113.796 45.004C113.442 44.6307 112.919 44.444 112.228 44.444Z" fill="#1A76DC"/>
<path d="M135.469 45.9C136.253 45.9 136.85 45.7227 137.261 45.368C137.69 44.9947 137.905 44.4347 137.905 43.688C137.905 42.9787 137.681 42.4373 137.233 42.064C136.804 41.672 136.169 41.476 135.329 41.476C135.03 41.476 134.778 41.4853 134.573 41.504C134.386 41.504 134.19 41.5227 133.985 41.56V45.9H135.469ZM134.013 54.888C133.808 54.944 133.481 55 133.033 55.056C132.604 55.112 132.174 55.14 131.745 55.14C131.316 55.14 130.933 55.1027 130.597 55.028C130.28 54.972 130.009 54.86 129.785 54.692C129.561 54.524 129.393 54.2907 129.281 53.992C129.169 53.6933 129.113 53.3013 129.113 52.816V39.628C129.113 39.236 129.216 38.9373 129.421 38.732C129.645 38.508 129.944 38.3307 130.317 38.2C130.952 37.976 131.67 37.8173 132.473 37.724C133.294 37.612 134.116 37.556 134.937 37.556C137.513 37.556 139.482 38.1067 140.845 39.208C142.208 40.3093 142.889 41.8027 142.889 43.688C142.889 44.6027 142.74 45.4333 142.441 46.18C142.161 46.908 141.732 47.5427 141.153 48.084C140.593 48.6067 139.874 49.0173 138.997 49.316C138.138 49.596 137.14 49.736 136.001 49.736H134.013V54.888ZM150.212 54.972C150.025 55.028 149.726 55.084 149.316 55.14C148.924 55.196 148.513 55.224 148.084 55.224C147.673 55.224 147.3 55.196 146.964 55.14C146.646 55.084 146.376 54.972 146.152 54.804C145.928 54.636 145.75 54.412 145.62 54.132C145.508 53.8333 145.452 53.4507 145.452 52.984V44.584C145.452 44.1547 145.526 43.7907 145.676 43.492C145.844 43.1747 146.077 42.8947 146.376 42.652C146.674 42.4093 147.038 42.1947 147.468 42.008C147.916 41.8027 148.392 41.6253 148.896 41.476C149.4 41.3267 149.922 41.2147 150.464 41.14C151.005 41.0467 151.546 41 152.088 41C152.984 41 153.693 41.1773 154.216 41.532C154.738 41.868 155 42.428 155 43.212C155 43.4733 154.962 43.7347 154.888 43.996C154.813 44.2387 154.72 44.4627 154.608 44.668C154.216 44.668 153.814 44.6867 153.404 44.724C152.993 44.7613 152.592 44.8173 152.2 44.892C151.808 44.9667 151.434 45.0507 151.08 45.144C150.744 45.2187 150.454 45.312 150.212 45.424V54.972ZM171.508 48.196C171.508 49.3533 171.331 50.3893 170.976 51.304C170.621 52.2 170.117 52.956 169.464 53.572C168.829 54.188 168.064 54.6547 167.168 54.972C166.272 55.2893 165.273 55.448 164.172 55.448C163.071 55.448 162.072 55.28 161.176 54.944C160.28 54.608 159.505 54.132 158.852 53.516C158.217 52.8813 157.723 52.116 157.368 51.22C157.013 50.324 156.836 49.316 156.836 48.196C156.836 47.0947 157.013 46.096 157.368 45.2C157.723 44.304 158.217 43.548 158.852 42.932C159.505 42.2973 160.28 41.812 161.176 41.476C162.072 41.14 163.071 40.972 164.172 40.972C165.273 40.972 166.272 41.1493 167.168 41.504C168.064 41.84 168.829 42.3253 169.464 42.96C170.117 43.576 170.621 44.332 170.976 45.228C171.331 46.124 171.508 47.1133 171.508 48.196ZM161.708 48.196C161.708 49.3347 161.923 50.212 162.352 50.828C162.8 51.4253 163.416 51.724 164.2 51.724C164.984 51.724 165.581 51.416 165.992 50.8C166.421 50.184 166.636 49.316 166.636 48.196C166.636 47.076 166.421 46.2173 165.992 45.62C165.563 45.004 164.956 44.696 164.172 44.696C163.388 44.696 162.781 45.004 162.352 45.62C161.923 46.2173 161.708 47.076 161.708 48.196ZM179.57 50.324C179.57 50.8093 179.72 51.1547 180.018 51.36C180.336 51.5653 180.774 51.668 181.334 51.668C181.614 51.668 181.904 51.6493 182.202 51.612C182.501 51.556 182.762 51.4907 182.986 51.416C183.154 51.6213 183.294 51.8547 183.406 52.116C183.537 52.3587 183.602 52.6573 183.602 53.012C183.602 53.7213 183.332 54.3 182.79 54.748C182.268 55.196 181.334 55.42 179.99 55.42C178.348 55.42 177.078 55.0467 176.182 54.3C175.305 53.5533 174.866 52.34 174.866 50.66V38.676C175.072 38.62 175.361 38.564 175.734 38.508C176.126 38.4333 176.537 38.396 176.966 38.396C177.788 38.396 178.422 38.5453 178.87 38.844C179.337 39.124 179.57 39.7307 179.57 40.664V42.456H183.238C183.35 42.6613 183.453 42.9227 183.546 43.24C183.658 43.5387 183.714 43.8747 183.714 44.248C183.714 44.9013 183.565 45.3773 183.266 45.676C182.986 45.956 182.604 46.096 182.118 46.096H179.57V50.324ZM194.033 55.448C192.932 55.448 191.905 55.2987 190.953 55C190.02 54.6827 189.198 54.216 188.489 53.6C187.798 52.984 187.248 52.2093 186.837 51.276C186.445 50.3427 186.249 49.2507 186.249 48C186.249 46.768 186.445 45.7133 186.837 44.836C187.248 43.94 187.78 43.212 188.433 42.652C189.086 42.0733 189.833 41.6533 190.673 41.392C191.513 41.112 192.372 40.972 193.249 40.972C194.238 40.972 195.134 41.1213 195.937 41.42C196.758 41.7187 197.458 42.1293 198.037 42.652C198.634 43.1747 199.092 43.8 199.409 44.528C199.745 45.256 199.913 46.0493 199.913 46.908C199.913 47.5427 199.736 48.028 199.381 48.364C199.026 48.7 198.532 48.9147 197.897 49.008L190.981 50.044C191.186 50.66 191.606 51.1267 192.241 51.444C192.876 51.7427 193.604 51.892 194.425 51.892C195.19 51.892 195.909 51.7987 196.581 51.612C197.272 51.4067 197.832 51.1733 198.261 50.912C198.56 51.0987 198.812 51.36 199.017 51.696C199.222 52.032 199.325 52.3867 199.325 52.76C199.325 53.6 198.933 54.2253 198.149 54.636C197.552 54.9533 196.88 55.168 196.133 55.28C195.386 55.392 194.686 55.448 194.033 55.448ZM193.249 44.444C192.801 44.444 192.409 44.5187 192.073 44.668C191.756 44.8173 191.494 45.0133 191.289 45.256C191.084 45.48 190.925 45.7413 190.813 46.04C190.72 46.32 190.664 46.6093 190.645 46.908L195.433 46.124C195.377 45.7507 195.172 45.3773 194.817 45.004C194.462 44.6307 193.94 44.444 193.249 44.444ZM210.856 44.724C210.39 44.724 209.942 44.7987 209.512 44.948C209.102 45.0973 208.738 45.3213 208.42 45.62C208.122 45.9 207.879 46.2547 207.692 46.684C207.506 47.1133 207.412 47.6173 207.412 48.196C207.412 49.3533 207.739 50.2213 208.392 50.8C209.064 51.3787 209.876 51.668 210.828 51.668C211.388 51.668 211.874 51.6027 212.284 51.472C212.695 51.3413 213.059 51.2013 213.376 51.052C213.75 51.3133 214.03 51.6027 214.216 51.92C214.403 52.2187 214.496 52.5827 214.496 53.012C214.496 53.7773 214.132 54.3747 213.404 54.804C212.676 55.2147 211.668 55.42 210.38 55.42C209.204 55.42 208.14 55.252 207.188 54.916C206.236 54.5613 205.415 54.076 204.724 53.46C204.052 52.8253 203.53 52.0693 203.156 51.192C202.783 50.3147 202.596 49.344 202.596 48.28C202.596 47.048 202.792 45.9747 203.184 45.06C203.595 44.1267 204.146 43.3613 204.836 42.764C205.527 42.1667 206.32 41.7187 207.216 41.42C208.131 41.1213 209.092 40.972 210.1 40.972C211.444 40.972 212.48 41.2147 213.208 41.7C213.936 42.1853 214.3 42.8107 214.3 43.576C214.3 43.9307 214.216 44.2667 214.048 44.584C213.88 44.8827 213.684 45.144 213.46 45.368C213.143 45.2187 212.76 45.0787 212.312 44.948C211.864 44.7987 211.379 44.724 210.856 44.724ZM222.624 50.324C222.624 50.8093 222.773 51.1547 223.072 51.36C223.389 51.5653 223.828 51.668 224.388 51.668C224.668 51.668 224.957 51.6493 225.256 51.612C225.554 51.556 225.816 51.4907 226.04 51.416C226.208 51.6213 226.348 51.8547 226.46 52.116C226.59 52.3587 226.656 52.6573 226.656 53.012C226.656 53.7213 226.385 54.3 225.844 54.748C225.321 55.196 224.388 55.42 223.044 55.42C221.401 55.42 220.132 55.0467 219.236 54.3C218.358 53.5533 217.92 52.34 217.92 50.66V38.676C218.125 38.62 218.414 38.564 218.788 38.508C219.18 38.4333 219.59 38.396 220.02 38.396C220.841 38.396 221.476 38.5453 221.924 38.844C222.39 39.124 222.624 39.7307 222.624 40.664V42.456H226.292C226.404 42.6613 226.506 42.9227 226.6 43.24C226.712 43.5387 226.768 43.8747 226.768 44.248C226.768 44.9013 226.618 45.3773 226.32 45.676C226.04 45.956 225.657 46.096 225.172 46.096H222.624V50.324ZM229.942 37.612C229.942 36.9027 230.176 36.3053 230.642 35.82C231.128 35.3347 231.762 35.092 232.546 35.092C233.33 35.092 233.956 35.3347 234.422 35.82C234.908 36.3053 235.15 36.9027 235.15 37.612C235.15 38.3213 234.908 38.9187 234.422 39.404C233.956 39.8893 233.33 40.132 232.546 40.132C231.762 40.132 231.128 39.8893 230.642 39.404C230.176 38.9187 229.942 38.3213 229.942 37.612ZM234.926 54.972C234.721 55.0093 234.413 55.056 234.002 55.112C233.61 55.1867 233.209 55.224 232.798 55.224C232.388 55.224 232.014 55.196 231.678 55.14C231.361 55.084 231.09 54.972 230.866 54.804C230.642 54.636 230.465 54.412 230.334 54.132C230.222 53.8333 230.166 53.4507 230.166 52.984V41.588C230.372 41.5507 230.67 41.504 231.062 41.448C231.473 41.3733 231.884 41.336 232.294 41.336C232.705 41.336 233.069 41.364 233.386 41.42C233.722 41.476 234.002 41.588 234.226 41.756C234.45 41.924 234.618 42.1573 234.73 42.456C234.861 42.736 234.926 43.1093 234.926 43.576V54.972ZM253.021 48.196C253.021 49.3533 252.843 50.3893 252.489 51.304C252.134 52.2 251.63 52.956 250.977 53.572C250.342 54.188 249.577 54.6547 248.681 54.972C247.785 55.2893 246.786 55.448 245.685 55.448C244.583 55.448 243.585 55.28 242.689 54.944C241.793 54.608 241.018 54.132 240.365 53.516C239.73 52.8813 239.235 52.116 238.881 51.22C238.526 50.324 238.349 49.316 238.349 48.196C238.349 47.0947 238.526 46.096 238.881 45.2C239.235 44.304 239.73 43.548 240.365 42.932C241.018 42.2973 241.793 41.812 242.689 41.476C243.585 41.14 244.583 40.972 245.685 40.972C246.786 40.972 247.785 41.1493 248.681 41.504C249.577 41.84 250.342 42.3253 250.977 42.96C251.63 43.576 252.134 44.332 252.489 45.228C252.843 46.124 253.021 47.1133 253.021 48.196ZM243.221 48.196C243.221 49.3347 243.435 50.212 243.865 50.828C244.313 51.4253 244.929 51.724 245.713 51.724C246.497 51.724 247.094 51.416 247.505 50.8C247.934 50.184 248.149 49.316 248.149 48.196C248.149 47.076 247.934 46.2173 247.505 45.62C247.075 45.004 246.469 44.696 245.685 44.696C244.901 44.696 244.294 45.004 243.865 45.62C243.435 46.2173 243.221 47.076 243.221 48.196ZM264.947 46.376C264.947 45.7973 264.779 45.3773 264.443 45.116C264.126 44.836 263.687 44.696 263.127 44.696C262.754 44.696 262.38 44.7427 262.007 44.836C261.652 44.9293 261.344 45.0693 261.083 45.256V54.972C260.896 55.028 260.598 55.084 260.187 55.14C259.795 55.196 259.384 55.224 258.955 55.224C258.544 55.224 258.171 55.196 257.835 55.14C257.518 55.084 257.247 54.972 257.023 54.804C256.799 54.636 256.622 54.412 256.491 54.132C256.379 53.8333 256.323 53.4507 256.323 52.984V44.584C256.323 44.08 256.426 43.6693 256.631 43.352C256.855 43.0347 257.154 42.7453 257.527 42.484C258.162 42.036 258.955 41.672 259.907 41.392C260.878 41.112 261.951 40.972 263.127 40.972C265.236 40.972 266.86 41.4387 267.999 42.372C269.138 43.2867 269.707 44.5653 269.707 46.208V54.972C269.52 55.028 269.222 55.084 268.811 55.14C268.419 55.196 268.008 55.224 267.579 55.224C267.168 55.224 266.795 55.196 266.459 55.14C266.142 55.084 265.871 54.972 265.647 54.804C265.423 54.636 265.246 54.412 265.115 54.132C265.003 53.8333 264.947 53.4507 264.947 52.984V46.376Z" fill="#5F9FE7"/>
</svg>
