<svg width="17" height="16" viewBox="0 0 17 16" fill="none" xmlns="http://www.w3.org/2000/svg">
<path d="M7.36516 0.000340375C8.24995 -0.00813252 9.10364 0.141555 9.92341 0.452228C10.7799 0.771374 11.5432 1.23738 12.2131 1.85026C12.8831 2.48008 13.406 3.20592 13.782 4.02497C14.158 4.83554 14.37 5.67153 14.418 6.53859C14.4746 7.4226 14.3671 8.28119 14.0929 9.10871C13.8018 9.98424 13.358 10.7666 12.7643 11.4529L16.4109 15.0962C16.5042 15.1894 16.5522 15.3165 16.5522 15.4775C16.5522 15.6187 16.5042 15.7402 16.4109 15.8447C16.3063 15.9492 16.1848 16 16.0434 16C15.8823 16 15.7523 15.952 15.6477 15.8588L12.0152 12.2013C11.3085 12.8029 10.5255 13.2463 9.669 13.5287C8.84075 13.8027 7.9814 13.91 7.09662 13.8535C6.21183 13.8055 5.37227 13.5993 4.58077 13.2322C3.761 12.8566 3.03451 12.3284 2.40414 11.6506C1.77376 10.9812 1.30734 10.2187 1.00487 9.3629C0.693926 8.54385 0.544106 7.69091 0.552587 6.8069C0.572373 5.9229 0.756116 5.07843 1.10381 4.27915C1.44303 3.43186 1.94337 2.68907 2.60201 2.04796C3.2437 1.3899 3.98149 0.889995 4.82105 0.551079C5.63234 0.212163 6.48038 0.0285834 7.36516 0.000340375ZM9.78207 1.56783C9.06689 1.26563 8.31214 1.11594 7.52064 1.11594C6.72913 1.11594 5.9659 1.26563 5.23093 1.56783C4.54402 1.87003 3.92495 2.29367 3.37938 2.83876C2.84229 3.37538 2.42393 3.98825 2.12146 4.67456C1.81899 5.40887 1.66917 6.17144 1.66917 6.96224C1.66917 7.75304 1.81899 8.50996 2.12146 9.2358C2.42393 9.9334 2.84229 10.5547 3.37938 11.0998C3.92495 11.6365 4.54402 12.0545 5.23093 12.3567C5.9659 12.6589 6.72913 12.8085 7.52064 12.8085C8.31214 12.8085 9.06689 12.6532 9.78207 12.3425C10.4888 12.0516 11.1107 11.6365 11.6478 11.0998C12.1933 10.5547 12.6145 9.9334 12.9057 9.2358C13.2166 8.50996 13.3721 7.75304 13.3721 6.96224C13.3721 6.17144 13.2223 5.40887 12.9198 4.67456C12.6173 3.98825 12.1933 3.37538 11.6478 2.83876C11.1107 2.29367 10.4888 1.87003 9.78207 1.56783Z" fill="#1A76DC"/>
</svg>
